<svg xmlns="http://www.w3.org/2000/svg" viewBox="0 0 53.626 53.626"  xmlns:v="https://vecta.io/nano"><path d="M48.831 15.334c-7.083-11.637-17.753-3.541-17.753-3.541-.692.523-1.968.953-2.835.955l-2.858.002c-.867.001-2.143-.429-2.834-.952 0 0-10.671-8.098-17.755 3.539S.568 39.639.568 39.639c.5 3.102 2.148 5.172 5.258 4.912 3.101-.259 9.832-8.354 9.832-8.354.556-.667 1.721-1.212 2.586-1.212l17.134-.003c.866 0 2.03.545 2.585 1.212 0 0 6.732 8.095 9.838 8.354s4.758-1.812 5.255-4.912c-.001 0 2.858-12.667-4.225-24.302zm-28.457 9.472H16.7v3.541s-.778.594-1.982.579-1.746-.648-1.746-.648v-3.471h-3.47s-.433-.444-.549-1.613.479-2.114.479-2.114h3.675v-3.674s.756-.405 1.843-.374a4.86 4.86 0 0 1 1.885.443l-.015 3.604h3.47s.606.778.656 1.718-.572 2.009-.572 2.009zm16.852 4.036c-1.609 0-2.906-1.301-2.906-2.908a2.9 2.9 0 0 1 2.906-2.908 2.91 2.91 0 0 1 2.909 2.908 2.91 2.91 0 0 1-2.909 2.908zm0-8.001c-1.609 0-2.906-1.3-2.906-2.907a2.9 2.9 0 0 1 2.906-2.908 2.91 2.91 0 0 1 2.909 2.908 2.91 2.91 0 0 1-2.909 2.907zm7.242 4.295c-1.609 0-2.906-1.3-2.906-2.908s1.297-2.908 2.906-2.908a2.91 2.91 0 0 1 2.909 2.908 2.91 2.91 0 0 1-2.909 2.908z" fill="#fff"/><defs /></svg>